<svg viewBox="0 0 75 75" fill="none" xmlns="http://www.w3.org/2000/svg">
  <g clip-path="url(#clip0_21_154)">
    <mask id="mask0_21_154" style="mask-type:alpha" maskUnits="userSpaceOnUse" x="0" y="0"
      width="75" height="75">
      <path
        d="M37.5 75C58.2107 75 75 58.2107 75 37.5C75 16.7893 58.2107 0 37.5 0C16.7893 0 0 16.7893 0 37.5C0 58.2107 16.7893 75 37.5 75Z"
        fill="black" />
    </mask>
    <g mask="url(#mask0_21_154)">
      <path
        d="M37.5 73.75C57.5203 73.75 73.75 57.5203 73.75 37.5C73.75 17.4797 57.5203 1.25 37.5 1.25C17.4797 1.25 1.25 17.4797 1.25 37.5C1.25 57.5203 17.4797 73.75 37.5 73.75Z"
        fill="black" stroke="white" stroke-width="6" />
      <path
        d="M62.295 65.6333L28.8092 22.5H22.5V52.4875H27.5473V28.9098L58.3329 68.6854C59.7221 67.7558 61.0454 66.7354 62.295 65.6333Z"
        fill="url(#paint0_linear_21_154)" />
      <path d="M52.9167 22.5H47.9167V52.5H52.9167V22.5Z" fill="url(#paint1_linear_21_154)" />
    </g>
  </g>
  <defs>
    <linearGradient id="paint0_linear_21_154" x1="45.4167" y1="48.5417" x2="60.2083" y2="66.875"
      gradientUnits="userSpaceOnUse">
      <stop stop-color="white" />
      <stop offset="1" stop-color="white" stop-opacity="0" />
    </linearGradient>
    <linearGradient id="paint1_linear_21_154" x1="50.4167" y1="22.5" x2="50.333" y2="44.5313"
      gradientUnits="userSpaceOnUse">
      <stop stop-color="white" />
      <stop offset="1" stop-color="white" stop-opacity="0" />
    </linearGradient>
    <clipPath id="clip0_21_154">
      <rect width="75" height="75" fill="white" />
    </clipPath>
  </defs>
</svg>